# xmcd
#
# Track frame offsets:
#	150
#	17874
#	32133
#	79030
#	115892
#	132366
#	154692
#	180438
#	205221
#	232328
#	254722
#	278013
#	292880
#
# Disc length: 4186 seconds
#
# Revision: 2
# Processed by: cddbd v1.5.2PL0 Copyright (c) Steve Scherf et al.
# Submitted via: audiograbber 1.83.01
#
DISCID=b710580d
DTITLE=Various Artist - TRUE BLUE: 75 Years Of Blue Note Records - Disk 4/4
DYEAR=2014
DGENRE=Blues
TTITLE0=Gregory Porter - No Love Dying
TTITLE1=Paul Chambers Quintet - Softly As In A Morning Sunrise
TTITLE2=Lee Morgan - The Sidewinder
TTITLE3=Wayne Shorter - Witch Hunt
TTITLE4=Patricia Barber - You're The Top
TTITLE5=Tina Brooks - True Blue
TTITLE6=Kenny Burrell - Chitlins Con Carne
TTITLE7=Freddie Redd - Blues - Blues
TTITLE8=Donald Byrd - Cristo Redentor
TTITLE9=Ron Carter - As Time Goes By
TTITLE10=Martin Medeski and Wood - End of the Word Party
TTITLE11=Norah Jones - Come Away With Me
TTITLE12=Us3 - Cantaloop (Flip Fantasia)
EXTD=
EXTT0=
EXTT1=
EXTT2=
EXTT3=
EXTT4=
EXTT5=
EXTT6=
EXTT7=
EXTT8=
EXTT9=
EXTT10=
EXTT11=
EXTT12=
PLAYORDER=
